<svg width="100" height="100" fill="none" xmlns="http://www.w3.org/2000/svg"><rect width="100" height="100" rx="16" fill="#F2785C"/><path d="M35.417 69.755a7.157 7.157 0 0 1-5.156-2.218 7.722 7.722 0 0 1-2.136-5.354 7.72 7.72 0 0 1 2.136-5.355 7.157 7.157 0 0 1 5.156-2.217 7.16 7.16 0 0 1 5.156 2.217 7.722 7.722 0 0 1 2.135 5.355 7.723 7.723 0 0 1-2.135 5.354 7.158 7.158 0 0 1-5.156 2.218Zm0-18.39c-2.763 0-5.413 1.14-7.366 3.169C26.098 56.562 25 59.314 25 62.183c0 2.869 1.098 5.62 3.051 7.649C30.005 71.86 32.654 73 35.417 73c2.762 0 5.412-1.14 7.365-3.168 1.954-2.029 3.051-4.78 3.051-7.65 0-2.868-1.097-5.62-3.05-7.648-1.954-2.029-4.604-3.169-7.366-3.169Zm20.416-4.327h8.75v-3.894h-6.666l-4.042-7.074c-.604-1.082-1.792-1.796-3.042-1.796-.979 0-1.875.411-2.5 1.082l-7.708 7.983c-.646.67-1.042 1.536-1.042 2.618 0 1.363.688 2.51 1.771 3.18l6.98 4.392v10.817h3.75V50.284l-4.688-3.57 4.833-5.084 3.604 5.408Zm8.75 22.717a7.158 7.158 0 0 1-5.156-2.218 7.723 7.723 0 0 1-2.135-5.354c0-2.009.768-3.935 2.135-5.355a7.158 7.158 0 0 1 5.156-2.217c1.934 0 3.789.797 5.156 2.217a7.722 7.722 0 0 1 2.136 5.355 7.722 7.722 0 0 1-2.136 5.354 7.157 7.157 0 0 1-5.156 2.218Zm0-18.39c-2.762 0-5.412 1.14-7.365 3.169-1.954 2.028-3.051 4.78-3.051 7.649 0 2.869 1.097 5.62 3.05 7.649C59.172 71.86 61.822 73 64.584 73c1.368 0 2.723-.28 3.987-.823a10.398 10.398 0 0 0 3.379-2.345 10.855 10.855 0 0 0 2.258-3.51 11.18 11.18 0 0 0 .793-4.14c0-1.42-.27-2.827-.793-4.139a10.855 10.855 0 0 0-2.258-3.51 10.398 10.398 0 0 0-3.38-2.344 10.083 10.083 0 0 0-3.986-.824Zm-6.25-15.577c2.084 0 3.75-1.73 3.75-3.894 0-2.163-1.666-3.894-3.75-3.894-2.083 0-3.75 1.73-3.75 3.894s1.667 3.895 3.75 3.895Z" fill="#fff"/></svg>