<svg width="100" height="100" fill="none" xmlns="http://www.w3.org/2000/svg"><rect width="100" height="100" rx="16" fill="#F2785C"/><path d="M37.722 52.889a3.612 3.612 0 1 0 0-7.223 3.612 3.612 0 0 0 0 7.223Zm15.89-3.611a3.61 3.61 0 1 1-7.222 0 3.61 3.61 0 0 1 7.221 0Zm8.666 3.61a3.611 3.611 0 1 0 0-7.221 3.611 3.611 0 0 0 0 7.222Zm-20.945 7.945a3.611 3.611 0 1 1-7.222 0 3.611 3.611 0 0 1 7.222 0ZM50 64.444a3.611 3.611 0 1 0 0-7.222 3.611 3.611 0 0 0 0 7.222ZM24 33.028A9.027 9.027 0 0 1 33.028 24h33.944A9.027 9.027 0 0 1 76 33.028v33.944A9.027 9.027 0 0 1 66.972 76H33.028A9.027 9.027 0 0 1 24 66.972V33.028Zm9.028-5.417a5.417 5.417 0 0 0-5.417 5.417v2.528H72.39v-2.528a5.417 5.417 0 0 0-5.417-5.417H33.028ZM27.61 66.972a5.417 5.417 0 0 0 5.417 5.417h33.944a5.417 5.417 0 0 0 5.417-5.417V39.167H27.61v27.805Z" fill="#fff"/></svg>